<mxfile host="app.diagrams.net" agent="Mozilla/5.0 (Windows NT 10.0; Win64; x64; rv:143.0) Gecko/20100101 Firefox/143.0" version="28.2.7">
  <diagram name="Seite-1" id="7wh7cI6RKeMpp_CDys2d">
    <mxGraphModel dx="1375" dy="779" grid="1" gridSize="10" guides="1" tooltips="1" connect="1" arrows="1" fold="1" page="1" pageScale="1" pageWidth="827" pageHeight="1169" math="0" shadow="0">
      <root>
        <mxCell id="0" />
        <mxCell id="1" parent="0" />
        <mxCell id="K4i-0fb5JxuXK9uV-XJq-2" value="" style="rounded=0;whiteSpace=wrap;html=1;fillColor=#fff2cc;strokeColor=#d6b656;glass=1;" vertex="1" parent="1">
          <mxGeometry x="680" y="30" width="120" height="680" as="geometry" />
        </mxCell>
        <mxCell id="K4i-0fb5JxuXK9uV-XJq-1" value="" style="rounded=0;whiteSpace=wrap;html=1;fillColor=#fff2cc;strokeColor=#d6b656;glass=1;" vertex="1" parent="1">
          <mxGeometry x="40" y="40" width="600" height="680" as="geometry" />
        </mxCell>
        <mxCell id="_cneKzUoxUY8kCUOlQfZ-2" value="Local" style="rounded=1;whiteSpace=wrap;html=1;fillColor=#fad7ac;strokeColor=#b46504;" parent="1" vertex="1">
          <mxGeometry x="40" y="40" width="600" height="60" as="geometry" />
        </mxCell>
        <mxCell id="_cneKzUoxUY8kCUOlQfZ-3" value="Working Directory" style="rounded=0;whiteSpace=wrap;html=1;" parent="1" vertex="1">
          <mxGeometry x="70" y="120" width="120" height="60" as="geometry" />
        </mxCell>
        <mxCell id="_cneKzUoxUY8kCUOlQfZ-4" value="Index" style="rounded=0;whiteSpace=wrap;html=1;" parent="1" vertex="1">
          <mxGeometry x="250" y="120" width="120" height="60" as="geometry" />
        </mxCell>
        <mxCell id="_cneKzUoxUY8kCUOlQfZ-5" value="Local Repository" style="rounded=0;whiteSpace=wrap;html=1;" parent="1" vertex="1">
          <mxGeometry x="430" y="120" width="120" height="60" as="geometry" />
        </mxCell>
        <mxCell id="_cneKzUoxUY8kCUOlQfZ-6" value="" style="endArrow=none;html=1;rounded=0;entryX=0.5;entryY=1;entryDx=0;entryDy=0;" parent="1" target="_cneKzUoxUY8kCUOlQfZ-5" edge="1">
          <mxGeometry width="50" height="50" relative="1" as="geometry">
            <mxPoint x="490" y="400" as="sourcePoint" />
            <mxPoint x="440" y="330" as="targetPoint" />
          </mxGeometry>
        </mxCell>
        <mxCell id="_cneKzUoxUY8kCUOlQfZ-7" value="" style="endArrow=none;html=1;rounded=0;entryX=0.5;entryY=1;entryDx=0;entryDy=0;" parent="1" edge="1">
          <mxGeometry width="50" height="50" relative="1" as="geometry">
            <mxPoint x="310" y="680" as="sourcePoint" />
            <mxPoint x="309.5" y="180" as="targetPoint" />
          </mxGeometry>
        </mxCell>
        <mxCell id="_cneKzUoxUY8kCUOlQfZ-8" value="" style="endArrow=none;html=1;rounded=0;entryX=0.5;entryY=1;entryDx=0;entryDy=0;" parent="1" edge="1">
          <mxGeometry width="50" height="50" relative="1" as="geometry">
            <mxPoint x="130" y="680" as="sourcePoint" />
            <mxPoint x="129.5" y="180" as="targetPoint" />
          </mxGeometry>
        </mxCell>
        <mxCell id="_cneKzUoxUY8kCUOlQfZ-9" value="" style="endArrow=none;html=1;rounded=0;" parent="1" edge="1">
          <mxGeometry width="50" height="50" relative="1" as="geometry">
            <mxPoint x="600" y="610" as="sourcePoint" />
            <mxPoint x="600" y="440" as="targetPoint" />
          </mxGeometry>
        </mxCell>
        <mxCell id="_cneKzUoxUY8kCUOlQfZ-10" value="" style="endArrow=classic;html=1;rounded=0;" parent="1" edge="1">
          <mxGeometry width="50" height="50" relative="1" as="geometry">
            <mxPoint x="130" y="280" as="sourcePoint" />
            <mxPoint x="310" y="280" as="targetPoint" />
          </mxGeometry>
        </mxCell>
        <mxCell id="_cneKzUoxUY8kCUOlQfZ-11" value="git add" style="edgeLabel;html=1;align=center;verticalAlign=middle;resizable=0;points=[];" parent="_cneKzUoxUY8kCUOlQfZ-10" vertex="1" connectable="0">
          <mxGeometry x="-0.2333" y="3" relative="1" as="geometry">
            <mxPoint x="13" y="-9" as="offset" />
          </mxGeometry>
        </mxCell>
        <mxCell id="_cneKzUoxUY8kCUOlQfZ-12" value="" style="endArrow=classic;html=1;rounded=0;" parent="1" edge="1">
          <mxGeometry width="50" height="50" relative="1" as="geometry">
            <mxPoint x="310" y="320" as="sourcePoint" />
            <mxPoint x="490" y="320" as="targetPoint" />
          </mxGeometry>
        </mxCell>
        <mxCell id="_cneKzUoxUY8kCUOlQfZ-13" value="git commit" style="edgeLabel;html=1;align=center;verticalAlign=middle;resizable=0;points=[];" parent="_cneKzUoxUY8kCUOlQfZ-12" vertex="1" connectable="0">
          <mxGeometry x="-0.0889" y="-3" relative="1" as="geometry">
            <mxPoint x="7" y="-16" as="offset" />
          </mxGeometry>
        </mxCell>
        <mxCell id="_cneKzUoxUY8kCUOlQfZ-14" value="" style="endArrow=classic;html=1;rounded=0;" parent="1" edge="1">
          <mxGeometry width="50" height="50" relative="1" as="geometry">
            <mxPoint x="130" y="360" as="sourcePoint" />
            <mxPoint x="600" y="360" as="targetPoint" />
          </mxGeometry>
        </mxCell>
        <mxCell id="_cneKzUoxUY8kCUOlQfZ-15" value="git branch" style="edgeLabel;html=1;align=center;verticalAlign=middle;resizable=0;points=[];" parent="_cneKzUoxUY8kCUOlQfZ-14" vertex="1" connectable="0">
          <mxGeometry x="0.366" y="-6" relative="1" as="geometry">
            <mxPoint x="-44" y="-8" as="offset" />
          </mxGeometry>
        </mxCell>
        <mxCell id="_cneKzUoxUY8kCUOlQfZ-16" value="main" style="text;html=1;whiteSpace=wrap;strokeColor=none;fillColor=none;align=center;verticalAlign=middle;rounded=0;rotation=90;" parent="1" vertex="1">
          <mxGeometry x="480" y="200" width="60" height="30" as="geometry" />
        </mxCell>
        <mxCell id="_cneKzUoxUY8kCUOlQfZ-17" value="feature" style="text;html=1;whiteSpace=wrap;strokeColor=none;fillColor=none;align=center;verticalAlign=middle;rounded=0;rotation=90;" parent="1" vertex="1">
          <mxGeometry x="590" y="370" width="60" height="30" as="geometry" />
        </mxCell>
        <mxCell id="_cneKzUoxUY8kCUOlQfZ-18" value="" style="endArrow=none;dashed=1;html=1;dashPattern=1 3;strokeWidth=2;rounded=0;" parent="1" edge="1">
          <mxGeometry width="50" height="50" relative="1" as="geometry">
            <mxPoint x="490" y="610" as="sourcePoint" />
            <mxPoint x="490" y="400" as="targetPoint" />
          </mxGeometry>
        </mxCell>
        <mxCell id="_cneKzUoxUY8kCUOlQfZ-19" value="" style="endArrow=classic;html=1;rounded=0;" parent="1" edge="1">
          <mxGeometry width="50" height="50" relative="1" as="geometry">
            <mxPoint x="310" y="520" as="sourcePoint" />
            <mxPoint x="600" y="520" as="targetPoint" />
          </mxGeometry>
        </mxCell>
        <mxCell id="_cneKzUoxUY8kCUOlQfZ-20" value="git commit" style="edgeLabel;html=1;align=center;verticalAlign=middle;resizable=0;points=[];" parent="_cneKzUoxUY8kCUOlQfZ-19" vertex="1" connectable="0">
          <mxGeometry x="-0.0889" y="-3" relative="1" as="geometry">
            <mxPoint x="7" y="-16" as="offset" />
          </mxGeometry>
        </mxCell>
        <mxCell id="_cneKzUoxUY8kCUOlQfZ-21" value="" style="endArrow=none;dashed=1;html=1;dashPattern=1 3;strokeWidth=2;rounded=0;" parent="1" edge="1">
          <mxGeometry width="50" height="50" relative="1" as="geometry">
            <mxPoint x="600" y="440" as="sourcePoint" />
            <mxPoint x="600" y="360" as="targetPoint" />
          </mxGeometry>
        </mxCell>
        <mxCell id="_cneKzUoxUY8kCUOlQfZ-22" value="" style="endArrow=classic;html=1;rounded=0;" parent="1" edge="1">
          <mxGeometry width="50" height="50" relative="1" as="geometry">
            <mxPoint x="130" y="440" as="sourcePoint" />
            <mxPoint x="600" y="440" as="targetPoint" />
          </mxGeometry>
        </mxCell>
        <mxCell id="_cneKzUoxUY8kCUOlQfZ-23" value="git checkout" style="edgeLabel;html=1;align=center;verticalAlign=middle;resizable=0;points=[];" parent="_cneKzUoxUY8kCUOlQfZ-22" vertex="1" connectable="0">
          <mxGeometry x="0.366" y="-6" relative="1" as="geometry">
            <mxPoint x="-44" y="-8" as="offset" />
          </mxGeometry>
        </mxCell>
        <mxCell id="_cneKzUoxUY8kCUOlQfZ-24" value="" style="endArrow=classic;html=1;rounded=0;" parent="1" edge="1">
          <mxGeometry width="50" height="50" relative="1" as="geometry">
            <mxPoint x="600" y="610" as="sourcePoint" />
            <mxPoint x="490" y="610" as="targetPoint" />
          </mxGeometry>
        </mxCell>
        <mxCell id="_cneKzUoxUY8kCUOlQfZ-25" value="git merge" style="edgeLabel;html=1;align=center;verticalAlign=middle;resizable=0;points=[];" parent="_cneKzUoxUY8kCUOlQfZ-24" vertex="1" connectable="0">
          <mxGeometry x="-0.3091" y="-2" relative="1" as="geometry">
            <mxPoint x="-13" as="offset" />
          </mxGeometry>
        </mxCell>
        <mxCell id="_cneKzUoxUY8kCUOlQfZ-26" value="" style="endArrow=none;html=1;rounded=0;" parent="1" edge="1">
          <mxGeometry width="50" height="50" relative="1" as="geometry">
            <mxPoint x="490" y="680" as="sourcePoint" />
            <mxPoint x="490" y="610" as="targetPoint" />
          </mxGeometry>
        </mxCell>
        <mxCell id="_cneKzUoxUY8kCUOlQfZ-28" value="Remote Repository" style="rounded=0;whiteSpace=wrap;html=1;" parent="1" vertex="1">
          <mxGeometry x="680" y="120" width="120" height="60" as="geometry" />
        </mxCell>
        <mxCell id="_cneKzUoxUY8kCUOlQfZ-29" value="" style="endArrow=classic;html=1;rounded=0;" parent="1" edge="1">
          <mxGeometry width="50" height="50" relative="1" as="geometry">
            <mxPoint x="130" y="640" as="sourcePoint" />
            <mxPoint x="740" y="640" as="targetPoint" />
          </mxGeometry>
        </mxCell>
        <mxCell id="_cneKzUoxUY8kCUOlQfZ-31" value="git push" style="edgeLabel;html=1;align=center;verticalAlign=middle;resizable=0;points=[];" parent="_cneKzUoxUY8kCUOlQfZ-29" vertex="1" connectable="0">
          <mxGeometry x="0.0262" y="2" relative="1" as="geometry">
            <mxPoint as="offset" />
          </mxGeometry>
        </mxCell>
        <mxCell id="_cneKzUoxUY8kCUOlQfZ-30" value="" style="endArrow=none;html=1;rounded=0;" parent="1" edge="1">
          <mxGeometry width="50" height="50" relative="1" as="geometry">
            <mxPoint x="740" y="680" as="sourcePoint" />
            <mxPoint x="740" y="240" as="targetPoint" />
          </mxGeometry>
        </mxCell>
        <mxCell id="_cneKzUoxUY8kCUOlQfZ-34" value="remote:main" style="edgeLabel;html=1;align=center;verticalAlign=middle;resizable=0;points=[];" parent="_cneKzUoxUY8kCUOlQfZ-30" vertex="1" connectable="0">
          <mxGeometry x="0.928" y="-6" relative="1" as="geometry">
            <mxPoint x="34" as="offset" />
          </mxGeometry>
        </mxCell>
        <mxCell id="_cneKzUoxUY8kCUOlQfZ-32" value="" style="endArrow=classic;html=1;rounded=0;" parent="1" edge="1">
          <mxGeometry width="50" height="50" relative="1" as="geometry">
            <mxPoint x="130" y="240" as="sourcePoint" />
            <mxPoint x="740" y="240" as="targetPoint" />
          </mxGeometry>
        </mxCell>
        <mxCell id="_cneKzUoxUY8kCUOlQfZ-33" value="git push" style="edgeLabel;html=1;align=center;verticalAlign=middle;resizable=0;points=[];" parent="_cneKzUoxUY8kCUOlQfZ-32" vertex="1" connectable="0">
          <mxGeometry x="0.0262" y="2" relative="1" as="geometry">
            <mxPoint as="offset" />
          </mxGeometry>
        </mxCell>
        <mxCell id="RdFy7F0VDYDAn4MEJj_G-1" value="Remote" style="rounded=1;whiteSpace=wrap;html=1;fillColor=#fad7ac;strokeColor=#b46504;" parent="1" vertex="1">
          <mxGeometry x="680" y="40" width="120" height="60" as="geometry" />
        </mxCell>
        <mxCell id="K4i-0fb5JxuXK9uV-XJq-3" value="" style="endArrow=classic;html=1;rounded=0;" edge="1" parent="1">
          <mxGeometry width="50" height="50" relative="1" as="geometry">
            <mxPoint x="740" y="660" as="sourcePoint" />
            <mxPoint x="130" y="660" as="targetPoint" />
          </mxGeometry>
        </mxCell>
        <mxCell id="K4i-0fb5JxuXK9uV-XJq-4" value="git pull" style="edgeLabel;html=1;align=center;verticalAlign=middle;resizable=0;points=[];" vertex="1" connectable="0" parent="K4i-0fb5JxuXK9uV-XJq-3">
          <mxGeometry x="-0.459" y="2" relative="1" as="geometry">
            <mxPoint as="offset" />
          </mxGeometry>
        </mxCell>
      </root>
    </mxGraphModel>
  </diagram>
</mxfile>
